<svg width="138" height="138" viewBox="0 0 138 138" fill="none" xmlns="http://www.w3.org/2000/svg">
<path d="M57.5 74.75C59.9694 78.0512 63.1198 80.7828 66.7377 82.7594C70.3555 84.736 74.3562 85.9114 78.4682 86.2059C82.5803 86.5004 86.7076 85.9071 90.5702 84.4662C94.4328 83.0254 97.9404 80.7706 100.855 77.855L118.105 60.605C123.342 55.1827 126.24 47.9204 126.174 40.3822C126.109 32.844 123.085 25.6332 117.755 20.3027C112.424 14.9722 105.213 11.9486 97.6753 11.8831C90.1371 11.8176 82.8748 14.7154 77.4525 19.9525L67.5625 29.785" stroke="black" stroke-width="2" stroke-linecap="round" stroke-linejoin="round"/>
<path d="M80.5 63.25C78.0306 59.9488 74.8802 57.2172 71.2623 55.2406C67.6445 53.264 63.6438 52.0886 59.5317 51.7941C55.4197 51.4996 51.2924 52.0929 47.4298 53.5338C43.5671 54.9746 40.0596 57.2294 37.145 60.145L19.895 77.395C14.6579 82.8173 11.7601 90.0796 11.8256 97.6178C11.8911 105.156 14.9147 112.367 20.2452 117.697C25.5757 123.028 32.7865 126.051 40.3247 126.117C47.8629 126.182 55.1252 123.285 60.5475 118.048L70.38 108.215" stroke="black" stroke-width="2" stroke-linecap="round" stroke-linejoin="round"/>
</svg>
