<svg width="116" height="126" viewBox="0 0 116 126" fill="none" xmlns="http://www.w3.org/2000/svg">
<path d="M1 28.4333V14.7167C1 11.0788 2.33452 7.58989 4.70998 5.01752C7.08544 2.44514 10.3073 1 13.6667 1H26.3333M89.6667 1H102.333C105.693 1 108.915 2.44514 111.29 5.01752C113.665 7.58989 115 11.0788 115 14.7167V28.4333M115 97.0167V110.733C115 114.371 113.665 117.86 111.29 120.432C108.915 123.005 105.693 124.45 102.333 124.45H89.6667M26.3333 124.45H13.6667C10.3073 124.45 7.08544 123.005 4.70998 120.432C2.33452 117.86 1 114.371 1 110.733V97.0167" stroke="black" stroke-width="2" stroke-linecap="round" stroke-linejoin="round"/>
<path d="M58 69.5833C61.4978 69.5833 64.3333 66.5127 64.3333 62.725C64.3333 58.9372 61.4978 55.8666 58 55.8666C54.5022 55.8666 51.6667 58.9372 51.6667 62.725C51.6667 66.5127 54.5022 69.5833 58 69.5833Z" stroke="black" stroke-width="2" stroke-linecap="round" stroke-linejoin="round"/>
<path d="M101.979 60.462C102.452 61.9273 102.452 63.5231 101.979 64.9885C98.4129 74.45 92.3254 82.547 84.4926 88.2467C76.6598 93.9463 67.4368 96.9903 57.9999 96.9903C48.563 96.9903 39.34 93.9463 31.5072 88.2467C23.6745 82.547 17.587 74.45 14.0213 64.9885C13.5482 63.5231 13.5482 61.9273 14.0213 60.462C17.587 51.0004 23.6745 42.9034 31.5072 37.2037C39.34 31.5041 48.563 28.4601 57.9999 28.4601C67.4368 28.4601 76.6598 31.5041 84.4926 37.2037C92.3254 42.9034 98.4129 51.0004 101.979 60.462Z" stroke="black" stroke-width="2" stroke-linecap="round" stroke-linejoin="round"/>
</svg>
