<svg width="116" height="125" viewBox="0 0 116 125" fill="none" xmlns="http://www.w3.org/2000/svg">
<path d="M60.3078 68.7546C62.9071 62.2565 67.5051 56.9242 73.3261 53.6574C79.1471 50.3906 85.8347 49.3891 92.2608 50.822C98.6868 52.2549 104.458 56.0345 108.6 61.523C112.743 67.0115 115.003 73.873 115 80.95C115 104.726 92.1902 124 63.678 124C40.4291 124 17.1859 118.957 4.53791 108.859C2.10867 106.915 0.939668 103.742 1.0024 100.482C1.62396 66.9465 4.5265 1 46.5706 1C51.1078 1 55.4591 2.94383 58.6674 6.40388C61.8756 9.86393 63.678 14.5568 63.678 19.45C63.678 22.7122 62.4764 25.8407 60.3376 28.1474C58.1987 30.4541 55.2979 31.75 52.2731 31.75C45.9719 31.75 42.9211 29.0194 40.8682 25.6" stroke="black" stroke-width="2" stroke-linecap="round" stroke-linejoin="round"/>
<path d="M75.0829 74.7997C71.6414 72.0145 67.66 70.1054 63.4371 69.2155C59.2143 68.3256 54.8594 68.478 50.6989 69.6613C46.5384 70.8446 42.6802 73.0281 39.4134 76.0481C36.1466 79.0681 33.5559 82.8464 31.8355 87.0997" stroke="black" stroke-width="2" stroke-linecap="round" stroke-linejoin="round"/>
<path d="M46.3654 30.6735C35.2741 37.7583 43.7195 68.6498 35.1658 80.9498" stroke="black" stroke-width="2" stroke-linecap="round" stroke-linejoin="round"/>
</svg>
