<svg width="117" height="126" viewBox="0 0 117 126" fill="none" xmlns="http://www.w3.org/2000/svg">
<path d="M62.7175 19.5683C62.7248 17.1 62.2384 14.6551 61.287 12.3776C60.3355 10.1 58.9383 8.03563 57.1774 6.30595C55.4165 4.57627 53.3274 3.21617 51.0332 2.30565C48.7389 1.39514 46.2858 0.952583 43.818 1.00402C41.3502 1.05546 38.9176 1.59985 36.6633 2.60518C34.409 3.6105 32.3785 5.05647 30.6912 6.85802C29.0039 8.65958 27.6938 10.7803 26.8381 13.0956C25.9825 15.4109 25.5984 17.8738 25.7085 20.3397C22.081 21.2724 18.7134 23.0183 15.8606 25.4453C13.0078 27.8722 10.7447 30.9164 9.24263 34.3475C7.74058 37.7786 7.03898 41.5064 7.19097 45.2488C7.34297 48.9912 8.34457 52.6499 10.1199 55.9478C6.99838 58.4838 4.54374 61.744 2.96953 65.445C1.39532 69.1459 0.749227 73.1754 1.08745 77.183C1.42567 81.1906 2.73797 85.0548 4.91018 88.4396C7.08239 91.8244 10.0487 94.6271 13.5511 96.604C13.1186 99.9503 13.3767 103.35 14.3095 106.592C15.2423 109.835 16.8299 112.852 18.9743 115.457C21.1188 118.062 23.7745 120.2 26.7775 121.738C29.7805 123.276 33.067 124.183 36.434 124.401C39.801 124.62 43.1771 124.146 46.3537 123.008C49.5303 121.871 52.4401 120.094 54.9032 117.788C57.3663 115.482 59.3306 112.696 60.6746 109.601C62.0186 106.506 62.7139 103.169 62.7175 99.7946V19.5683Z" stroke="black" stroke-width="2" stroke-linecap="round" stroke-linejoin="round"/>
<path d="M44.2037 68.9384C49.3848 67.1158 53.9091 63.7977 57.2045 59.4039C60.4999 55.01 62.4185 49.7376 62.7175 44.2534M25.7085 20.3398C25.8305 23.325 26.6732 26.2364 28.1647 28.8253M10.1199 55.9541C11.2489 55.0346 12.457 54.2168 13.7301 53.5103M25.69 99.7947C21.4369 99.7966 17.2555 98.6997 13.5511 96.6103M62.7175 68.9384H87.4025M62.7175 99.7947H99.745C103.018 99.7947 106.158 101.095 108.472 103.41C110.787 105.724 112.087 108.864 112.087 112.137V118.308M62.7175 38.0821H112.087M87.4025 38.0821V19.5684C87.4025 16.295 88.7029 13.1556 91.0175 10.8409C93.3322 8.52626 96.4715 7.22589 99.745 7.22589" stroke="black" stroke-width="2" stroke-linecap="round" stroke-linejoin="round"/>
<path d="M87.4025 72.024C89.1066 72.024 90.4881 70.6426 90.4881 68.9384C90.4881 67.2343 89.1066 65.8528 87.4025 65.8528C85.6983 65.8528 84.3169 67.2343 84.3169 68.9384C84.3169 70.6426 85.6983 72.024 87.4025 72.024Z" stroke="black" stroke-width="2" stroke-linecap="round" stroke-linejoin="round"/>
<path d="M99.745 10.3115C101.449 10.3115 102.831 8.93003 102.831 7.22588C102.831 5.52174 101.449 4.14026 99.745 4.14026C98.0409 4.14026 96.6594 5.52174 96.6594 7.22588C96.6594 8.93003 98.0409 10.3115 99.745 10.3115Z" stroke="black" stroke-width="2" stroke-linecap="round" stroke-linejoin="round"/>
<path d="M112.087 121.394C113.792 121.394 115.173 120.013 115.173 118.308C115.173 116.604 113.792 115.223 112.087 115.223C110.383 115.223 109.002 116.604 109.002 118.308C109.002 120.013 110.383 121.394 112.087 121.394Z" stroke="black" stroke-width="2" stroke-linecap="round" stroke-linejoin="round"/>
<path d="M112.087 41.1678C113.792 41.1678 115.173 39.7863 115.173 38.0821C115.173 36.378 113.792 34.9965 112.087 34.9965C110.383 34.9965 109.002 36.378 109.002 38.0821C109.002 39.7863 110.383 41.1678 112.087 41.1678Z" stroke="black" stroke-width="2" stroke-linecap="round" stroke-linejoin="round"/>
</svg>
